:SAMPLES-PER-SECOND 30
:FULLY-SPECIFIED
:DEGREES
238
root  -37.8078 27.2981 31.6276 29.7777 72.486 13.0356
RightUpLeg  -32.0057 2.06985 -25.5189
RightLeg  68.8865 -5.50608 -11.8748
RightFoot  -13.5003 0.487261 4.4928
RightToes  -32.4057 -0.160833 -0.268333
Spine  17.4987 4.14186 4.40054
Spine1  31.3123 12.421 3.37127
HEad  3.58711 -18.8837 14.6351
LeftShoulder1  0 -2.42657e-020 -4.95415e-022
LeftArm  -9.21442 -14.5712 -85.8174
LeftForeArm  24.4849 -44.889 -10.1267
LeftHand  -0.187544 -8.63132 2.11652
RightShoulder  0 2.42657e-020 1.07489e-018
RightArm  -78.0742 30.3386 39.5651
RightForeArm  37.8609 37.1763 7.67959
RightHand  -1.4441 24.5313 -6.26688
LeftUpLeg  -63.9823 4.73419 0.534559
LeftLeg  66.8156 -1.30617 -2.59017
LeftFoot  -7.40665 0.00296941 0.0458679
LeftToes  -30.9458 1.71452e-006 7.46813e-008
239
root  -36.5845 28.0608 30.687 32.1445 72.7029 16.2067
RightUpLeg  -36.7461 -2.70728 -22.04
RightLeg  73.6048 -2.06684 -5.85033
RightFoot  -15.2877 0.339487 2.90684
RightToes  -39.0169 -0.210678 -0.309502
Spine  17.2078 3.91291 4.67982
Spine1  31.4294 12.1738 2.57034
HEad  3.07304 -17.6807 13.3284
LeftShoulder1  0 -2.42657e-020 -4.95415e-022
LeftArm  -9.73215 -11.4275 -85.5444
LeftForeArm  25.0677 -47.2313 -11.005
LeftHand  -0.184555 -8.73704 2.04716
RightShoulder  0 2.42657e-020 1.07489e-018
RightArm  -73.9283 29.7465 37.619
RightForeArm  47.124 41.9364 9.1032
RightHand  -2.34012 23.9561 -10.6305
LeftUpLeg  -59.9066 3.26959 -2.47933
LeftLeg  63.9959 -1.0965 -1.93489
LeftFoot  -8.03567 0.0148581 0.211526
LeftToes  -27.7239 1.71452e-006 7.46813e-008
240
root  -35.4576 28.7565 29.6891 32.9223 69.8688 16.795
RightUpLeg  -44.9354 -8.28685 -16.8183
RightLeg  76.3225 -1.96798 -6.53455
RightFoot  -16.2661 0.385459 3.07442
RightToes  -38.2945 -0.205005 -0.305287
Spine  16.8557 4.61016 4.16905
Spine1  31.0597 13.9332 0.596185
HEad  3.22772 -16.5639 11.876
LeftShoulder1  0 -2.42657e-020 -4.95415e-022
LeftArm  -11.0797 -7.86133 -86.3048
LeftForeArm  25.7318 -49.015 -11.73
LeftHand  -0.189743 -8.92931 2.06136
RightShoulder  0 2.42657e-020 1.07489e-018
RightArm  -68.6523 30.8878 35.7991
RightForeArm  51.3739 44.9956 10.1406
RightHand  -2.30265 24.4666 -10.224
LeftUpLeg  -56.6705 3.99599 -5.71003
LeftLeg  61.1745 -0.917798 -1.45088
LeftFoot  -8.31377 0.0263545 0.362606
LeftToes  -25.9971 1.71452e-006 7.46813e-008
241
root  -34.4388 29.197 28.7115 31.3778 65.5189 14.7595
RightUpLeg  -54.1443 -9.96026 -9.82367
RightLeg  75.7052 -1.80803 -5.80747
RightFoot  -17.0848 0.356325 2.74954
RightToes  -37.0951 -0.195704 -0.298132
Spine  17.2271 6.169 3.72269
Spine1  31.7674 17.2653 -0.610096
HEad  2.94268 -16.3409 11.3983
LeftShoulder1  0 -2.42657e-020 -4.95415e-022
LeftArm  -10.5809 -7.01383 -88.3996
LeftForeArm  25.0758 -49.2097 -11.8123
LeftHand  -0.201642 -8.85548 2.23544
RightShoulder  0 2.42657e-020 1.07489e-018
RightArm  -61.2714 32.2073 31.5318
RightForeArm  54.7379 46.5916 10.7253
RightHand  -2.32772 25.7703 -9.78255
LeftUpLeg  -56.179 4.1723 -6.94371
LeftLeg  62.2489 -1.29814 -2.13425
LeftFoot  -6.03582 0.0337837 0.640782
LeftToes  -29.2503 1.71452e-006 7.46813e-008
242
root  -33.3046 29.3684 27.6526 33.2959 60.2002 15.8637
RightUpLeg  -62.8447 -8.27449 -5.45812
RightLeg  72.4321 0.244865 0.428067
RightFoot  -14.7842 0.0306326 0.61369
RightToes  -44.72 -0.257244 -0.340203
Spine  17.6809 8.02512 2.42708
Spine1  31.7925 21.1911 -2.61014
HEad  2.33213 -17.3562 13.3857
LeftShoulder1  0 -2.42657e-020 -4.95415e-022
LeftArm  -8.17594 -7.35785 -89.7934
LeftForeArm  24.3171 -48.8119 -11.6447
LeftHand  -0.123188 -8.97197 1.20104
RightShoulder  0 2.42657e-020 1.07489e-018
RightArm  -53.9768 32.7543 29.9381
RightForeArm  56.3506 44.1575 9.83116
RightHand  -2.6882 23.0074 -12.7864
LeftUpLeg  -59.0342 2.5866 -7.60001
LeftLeg  67.4911 -3.71583 -7.52016
LeftFoot  -0.426388 0.00275975 0.74165
LeftToes  -34.1127 1.71452e-006 7.46813e-008
243
root  -32.0865 29.1565 26.8303 35.4978 56.6558 18.5738
RightUpLeg  -68.2491 -4.54409 -3.73119
RightLeg  68.8691 5.36402 11.2854
RightFoot  -7.27764 -0.100948 -1.20983
RightToes  -54.1684 -0.340362 -0.380422
Spine  19.0785 8.70799 2.00093
Spine1  33.5356 22.5555 -3.13068
HEad  -1.0428 -19.2582 16.5847
LeftShoulder1  0 -2.42657e-020 -4.95415e-022
LeftArm  -6.48198 -9.2884 -91.9111
LeftForeArm  25.3572 -48.6917 -11.5947
LeftHand  -0.114455 -9.36829 1.02761
RightShoulder  0 2.42657e-020 1.07489e-018
RightArm  -52.6782 32.0738 29.9791
RightForeArm  52.7312 38.1128 7.92226
RightHand  -1.3999 22.2396 -6.74544
LeftUpLeg  -61.029 -1.95233 -5.07409
LeftLeg  71.7442 -6.87283 -16.5639
LeftFoot  2.44816 0.0043006 -0.201278
LeftToes  -44.1088 1.71452e-006 7.46813e-008
244
root  -31.1021 28.3767 26.333 36.2571 57.25 21.306
RightUpLeg  -70.3633 0.63917 -4.27109
RightLeg  66.6596 11.8009 21.7554
RightFoot  3.60553 -0.0375806 1.5712
RightToes  -43.1214 -0.243886 -0.332067
Spine  21.1315 8.35367 3.54332
Spine1  37.0001 22.1139 -1.28817
HEad  -3.22591 -22.269 19.4179
LeftShoulder1  0 -2.42657e-020 -4.95415e-022
LeftArm  -3.8709 -12.1456 -94.5365
LeftForeArm  26.3175 -48.4661 -11.5013
LeftHand  -0.242798 -9.10663 2.68013
RightShoulder  0 2.42657e-020 1.07489e-018
RightArm  -45.8409 33.0234 25.9696
RightForeArm  57.1505 24.0347 4.46507
RightHand  -0.996027 21.7141 -4.82121
LeftUpLeg  -61.838 -7.88126 0.967552
LeftLeg  70.9924 -4.1245 -9.77736
LeftFoot  -2.56708 0.0121264 0.541205
LeftToes  -39.5691 1.71452e-006 7.46813e-008
245
root  -30.4876 27.3755 26.0235 37.0446 62.6588 23.4762
RightUpLeg  -70.353 3.52164 -5.68356
RightLeg  68.2976 5.9004 12.086
RightFoot  -1.87214 -0.0189642 -0.783375
RightToes  -23.4706 -0.101639 -0.204124
Spine  20.65 6.27813 5.75286
Spine1  36.7317 16.9838 2.93166
HEad  -2.43317 -25.5898 24.3714
LeftShoulder1  0 -2.42657e-020 -4.95415e-022
LeftArm  -0.578152 -13.0236 -94.6655
LeftForeArm  24.8234 -48.5674 -11.543
LeftHand  -0.228675 -8.74344 2.62265
RightShoulder  0 2.42657e-020 1.07489e-018
RightArm  -54.3831 30.0451 30.7616
RightForeArm  53.3545 19.0219 3.44906
RightHand  -0.0592029 23.0658 0.079896
LeftUpLeg  -63.497 -14.2576 11.0222
LeftLeg  66.8489 0.121488 0.226375
LeftFoot  -7.57364 -0.0437413 -0.660857
LeftToes  -25.448 1.71452e-006 7.46813e-008
246
root  -29.7295 26.7255 25.6934 34.8121 67.1501 23.1605
RightUpLeg  -69.6551 7.65861 -8.75305
RightLeg  72.6836 2.28669 5.73219
RightFoot  -4.17613 -0.0363714 -0.620105
RightToes  -34.6197 -0.176992 -0.282757
Spine  19.4974 3.90382 6.80096
Spine1  35.3675 11.0613 5.2329
HEad  0.800542 -26.3516 25.7599
LeftShoulder1  0 -2.42657e-020 -4.95415e-022
LeftArm  -0.836046 -12.1432 -93.4315
LeftForeArm  28.1872 -50.1624 -12.2254
LeftHand  -0.341624 -9.27941 3.84052
RightShoulder  0 2.42657e-020 1.07489e-018
RightArm  -59.7131 26.5067 43.1504
RightForeArm  38.0137 24.5497 4.60624
RightHand  -3.86658 20.3585 -20.9303
LeftUpLeg  -63.4645 -21.0653 22.1329
LeftLeg  62.4176 -1.00841 -1.67186
LeftFoot  -5.58464 -0.0364494 -0.747312
LeftToes  -24.9335 1.71452e-006 7.46813e-008
247
root  -28.8869 26.5544 25.0989 31.8088 69.895 21.7047
RightUpLeg  -67.1419 9.5695 -10.0652
RightLeg  74.2524 0.865654 2.22172
RightFoot  -6.52716 -0.0344027 -0.225794
RightToes  -35.2037 -0.181347 -0.286458
Spine  18.6858 1.54381 6.73034
Spine1  34.4023 5.58369 5.44056
HEad  3.64502 -26.0193 27.192
LeftShoulder1  0 -2.42657e-020 -4.95415e-022
LeftArm  -2.64183 -10.7094 -92.2493
LeftForeArm  30.0374 -52.2814 -13.2094
LeftHand  -0.474876 -9.34803 5.43741
RightShoulder  0 2.42657e-020 1.07489e-018
RightArm  -48.3706 20.44 53.6343
RightForeArm  40.24 36.9485 7.61281
RightHand  -4.32052 17.2611 -27.5532
LeftUpLeg  -62.9459 -27.2649 30.1797
LeftLeg  59.8248 -8.64731 -12.6419
LeftFoot  -3.00745 -0.00332197 -0.126555
LeftToes  -53.4841 1.71452e-006 7.46813e-008
248
root  -28.2442 26.8317 24.2356 28.2253 70.1083 18.9352
RightUpLeg  -64.9324 11.8846 -11.7631
RightLeg  73.2136 0.0644466 -0.0408714
RightFoot  -6.25895 -0.0157756 0.0890204
RightToes  -37.77 -0.200918 -0.302181
Spine  19.026 -0.462511 6.55637
Spine1  34.793 0.0568855 7.38619
HEad  2.70465 -26.5715 29.6297
LeftShoulder1  0 -2.42657e-020 -4.95415e-022
LeftArm  -2.58233 -12.9079 -92.5801
LeftForeArm  26.8089 -52.146 -13.144
LeftHand  -0.372784 -8.71234 4.52437
RightShoulder  0 2.42657e-020 1.07489e-018
RightArm  -39.9635 16.3266 58.0234
RightForeArm  51.0198 47.9092 11.2514
RightHand  -5.38971 18.4495 -31.9655
LeftUpLeg  -59.5598 -26.4911 28.7562
LeftLeg  58.4369 -11.7552 -16.093
LeftFoot  -5.43995 0.048198 1.01448
LeftToes  -56.3849 1.71452e-006 7.46813e-008
249
root  -27.7224 27.3628 23.0283 29.4411 67.5694 19.9126
RightUpLeg  -64.6207 15.2815 -16.4831
RightLeg  70.919 -0.945157 -2.43096
RightFoot  -4.59478 -0.00291613 0.304907
RightToes  -38.1574 -0.203934 -0.304479
Spine  19.1175 -1.85991 5.87848
Spine1  34.2989 -3.95574 8.57796
HEad  3.25089 -28.037 30.1359
LeftShoulder1  0 -2.42657e-020 -4.95415e-022
LeftArm  -1.50448 -14.8568 -92.7706
LeftForeArm  25.1817 -51.4287 -12.8022
LeftHand  -0.32945 -8.26755 4.18955
RightShoulder  0 2.42657e-020 1.07489e-018
RightArm  -37.9814 14.8604 63.027
RightForeArm  63.4893 52.9707 13.4944
RightHand  -5.2691 16.7292 -34.3968
LeftUpLeg  -55.1097 -22.3398 21.2638
LeftLeg  54.9567 -10.8372 -13.2045
LeftFoot  -6.83471 0.073575 1.23205
LeftToes  -52.4654 1.71452e-006 7.46813e-008
250
root  -27.3689 28.1074 21.6798 29.9844 64.5708 18.8479
RightUpLeg  -64.7535 19.0196 -21.472
RightLeg  65.7248 -2.596 -5.00169
RightFoot  -1.83666 -0.00221749 0.2393
RightToes  -39.2108 -0.21221 -0.310621
Spine  18.7196 -2.96184 5.46567
Spine1  32.7855 -7.63082 10.963
HEad  2.83352 -29.575 32.4682
LeftShoulder1  0 -2.42657e-020 -4.95415e-022
LeftArm  -1.02713 -15.9093 -93.6465
LeftForeArm  26.8725 -51.0166 -12.611
LeftHand  -0.365422 -9.02773 4.25961
RightShoulder  0 2.42657e-020 1.07489e-018
RightArm  -36.8119 10.649 68.8099
RightForeArm  61.4369 59.9183 17.746
RightHand  -4.93602 17.6141 -30.733
LeftUpLeg  -53.0636 -19.0806 16.8636
LeftLeg  51.1193 -10.8507 -11.592
LeftFoot  -6.3336 0.055085 0.995584
LeftToes  -46.4113 1.71452e-006 7.46813e-008
